<svg width="15" height="16" viewBox="0 0 15 16" fill="currentColor" xmlns="http://www.w3.org/2000/svg">
<path d="M4.5 2.50122V3.50122H14V5.48075L12.8906 9.00122H4.18538L2.93537 0H0V1H2.06463L3.31463 10.0012H13.624L15 5.63456V2.50122H4.5ZM5.03075 11.0107C4.5005 11.0114 3.99215 11.2223 3.6172 11.5972C3.24226 11.9721 3.03135 12.4805 3.03075 13.0107C3.03075 13.5412 3.24146 14.0499 3.61654 14.425C3.99161 14.8 4.50032 15.0107 5.03075 15.0107C5.56118 15.0107 6.06989 14.8 6.44496 14.425C6.82004 14.0499 7.03075 13.5412 7.03075 13.0107C7.03017 12.4805 6.81927 11.9721 6.44432 11.5972C6.06938 11.2222 5.56101 11.0113 5.03075 11.0107ZM5.03075 14.0107C4.83297 14.0107 4.63963 13.9521 4.47518 13.8422C4.31073 13.7323 4.18256 13.5762 4.10687 13.3934C4.03118 13.2107 4.01138 13.0096 4.04996 12.8157C4.08855 12.6217 4.18379 12.4435 4.32364 12.3036C4.4635 12.1638 4.64168 12.0685 4.83566 12.03C5.02964 11.9914 5.23071 12.0112 5.41343 12.0869C5.59616 12.1626 5.75234 12.2907 5.86222 12.4552C5.9721 12.6196 6.03075 12.813 6.03075 13.0107C6.03042 13.2759 5.92496 13.53 5.73749 13.7175C5.55003 13.905 5.29586 14.0104 5.03075 14.0107ZM12.0308 11.0107C11.5005 11.0114 10.9921 11.2223 10.6172 11.5972C10.2423 11.9721 10.0314 12.4805 10.0308 13.0107C10.0308 13.5412 10.2415 14.0499 10.6165 14.425C10.9916 14.8 11.5003 15.0107 12.0308 15.0107C12.5612 15.0107 13.0699 14.8 13.445 14.425C13.82 14.0499 14.0308 13.5412 14.0308 13.0107C14.0302 12.4805 13.8193 11.9721 13.4443 11.5972C13.0694 11.2222 12.561 11.0113 12.0308 11.0107ZM12.0308 14.0107C11.833 14.0107 11.6396 13.9521 11.4752 13.8422C11.3107 13.7323 11.1826 13.5762 11.1069 13.3934C11.0312 13.2107 11.0114 13.0096 11.05 12.8157C11.0886 12.6217 11.1838 12.4435 11.3236 12.3036C11.4635 12.1638 11.6417 12.0685 11.8357 12.03C12.0296 11.9914 12.2307 12.0112 12.4134 12.0869C12.5962 12.1626 12.7523 12.2907 12.8622 12.4552C12.9721 12.6196 13.0308 12.813 13.0308 13.0107C13.0304 13.2759 12.925 13.53 12.7375 13.7175C12.55 13.905 12.2959 14.0104 12.0308 14.0107Z" fill="black"/>
</svg>
