<svg width="10" height="10" viewBox="0 0 10 10" fill="currentColor" xmlns="http://www.w3.org/2000/svg">
<path d="M5.25594 10C3.84811 10 2.52716 9.45434 1.53639 8.46361C0.545617 7.47288 1.28696e-07 6.15186 1.28696e-07 4.74401C-0.000214766 3.77282 0.268696 2.82057 0.776883 1.99295C1.28507 1.16533 2.01266 0.494712 2.87888 0.0555413C2.968 0.0101124 3.06852 -0.00806126 3.16791 0.00328888C3.26729 0.014639 3.36113 0.0550102 3.43771 0.119363C3.51429 0.183715 3.57021 0.269199 3.59851 0.365141C3.62681 0.461084 3.62622 0.563236 3.59681 0.658846C3.34963 1.45724 3.32534 2.308 3.52656 3.1192C3.72778 3.9304 4.14686 4.67118 4.73851 5.2615C5.1631 5.68925 5.66832 6.02852 6.22491 6.25969C6.78151 6.49086 7.37843 6.60934 7.98113 6.60826C8.44218 6.60861 8.90066 6.53946 9.34109 6.40313C9.43671 6.37371 9.53887 6.37311 9.63483 6.4014C9.73078 6.42969 9.81628 6.48562 9.88064 6.56221C9.945 6.63879 9.98537 6.73265 9.99672 6.83204C10.0081 6.93143 9.98987 7.03197 9.94442 7.12109C9.50524 7.9873 8.83462 8.71488 8.007 9.22307C7.17938 9.73126 6.22713 10.0002 5.25594 10ZM2.86069 0.828578C2.18898 1.23727 1.63411 1.81239 1.24976 2.49832C0.865402 3.18424 0.664568 3.95775 0.666683 4.74401C0.666683 7.27455 2.7254 9.33332 5.25594 9.33332C6.04221 9.33544 6.81572 9.13461 7.50165 8.75025C8.18758 8.36589 8.76271 7.81102 9.1714 7.13931C8.7811 7.22963 8.38178 7.27515 7.98117 7.27501C7.29089 7.27632 6.60721 7.14071 5.9697 6.87601C5.33219 6.61132 4.75351 6.22281 4.26716 5.73297C3.63535 5.10235 3.17466 4.32113 2.92858 3.46305C2.68249 2.60496 2.65913 1.69832 2.86069 0.828703V0.828578Z" fill="black"/>
</svg>
