<svg width="13" height="13" viewBox="0 0 13 13" fill="currentColor" xmlns="http://www.w3.org/2000/svg">
<path d="M6 0.875V0.375C6 0.275544 6.03951 0.180161 6.10984 0.109835C6.18016 0.0395088 6.27554 0 6.375 0C6.47446 0 6.56984 0.0395088 6.64017 0.109835C6.71049 0.180161 6.75 0.275544 6.75 0.375V0.875C6.75 0.974456 6.71049 1.06984 6.64017 1.14017C6.56984 1.21049 6.47446 1.25 6.375 1.25C6.27554 1.25 6.18016 1.21049 6.10984 1.14017C6.03951 1.06984 6 0.974456 6 0.875ZM10.25 6.375C10.25 7.1414 10.0227 7.89059 9.59694 8.52783C9.17115 9.16508 8.56596 9.66174 7.8579 9.95503C7.14984 10.2483 6.3707 10.3251 5.61903 10.1755C4.86735 10.026 4.17689 9.65697 3.63496 9.11504C3.09303 8.57311 2.72397 7.88265 2.57446 7.13097C2.42494 6.3793 2.50168 5.60017 2.79497 4.8921C3.08826 4.18404 3.58493 3.57885 4.22217 3.15306C4.85941 2.72726 5.6086 2.5 6.375 2.5C7.40236 2.50116 8.38731 2.90979 9.11376 3.63624C9.84021 4.36269 10.2488 5.34764 10.25 6.375ZM9.5 6.375C9.5 5.75693 9.31672 5.15275 8.97334 4.63884C8.62996 4.12494 8.1419 3.7244 7.57089 3.48788C6.99987 3.25135 6.37153 3.18947 5.76534 3.31005C5.15915 3.43063 4.60233 3.72825 4.16529 4.16529C3.72825 4.60233 3.43063 5.15915 3.31005 5.76534C3.18947 6.37153 3.25135 6.99987 3.48788 7.57089C3.7244 8.1419 4.12494 8.62996 4.63884 8.97334C5.15275 9.31672 5.75693 9.5 6.375 9.5C7.2035 9.49901 7.99778 9.16945 8.58361 8.58361C9.16945 7.99778 9.49901 7.2035 9.5 6.375ZM2.11 2.64C2.14433 2.67684 2.18573 2.70639 2.23173 2.72689C2.27773 2.74739 2.32739 2.75841 2.37774 2.7593C2.42809 2.76018 2.4781 2.75092 2.5248 2.73206C2.57149 2.7132 2.61391 2.68513 2.64952 2.64952C2.68513 2.61391 2.7132 2.57149 2.73206 2.5248C2.75092 2.4781 2.76018 2.42809 2.7593 2.37774C2.75841 2.32739 2.74739 2.27773 2.72689 2.23173C2.70639 2.18573 2.67684 2.14433 2.64 2.11L2.14 1.61C2.06891 1.54376 1.97489 1.5077 1.87774 1.50941C1.78059 1.51113 1.6879 1.55048 1.61919 1.61919C1.55048 1.6879 1.51113 1.78059 1.50941 1.87774C1.5077 1.97489 1.54376 2.06891 1.61 2.14L2.11 2.64ZM2.11 10.11L1.61 10.61C1.57316 10.6443 1.54361 10.6857 1.52311 10.7317C1.50261 10.7777 1.49159 10.8274 1.4907 10.8777C1.48982 10.9281 1.49908 10.9781 1.51794 11.0248C1.5368 11.0715 1.56487 11.1139 1.60048 11.1495C1.63609 11.1851 1.67851 11.2132 1.7252 11.2321C1.7719 11.2509 1.82191 11.2602 1.87226 11.2593C1.92261 11.2584 1.97227 11.2474 2.01827 11.2269C2.06427 11.2064 2.10567 11.1768 2.14 11.14L2.64 10.64C2.67684 10.6057 2.70639 10.5643 2.72689 10.5183C2.74739 10.4723 2.75841 10.4226 2.7593 10.3723C2.76018 10.3219 2.75092 10.2719 2.73206 10.2252C2.7132 10.1785 2.68513 10.1361 2.64952 10.1005C2.61391 10.0649 2.57149 10.0368 2.5248 10.0179C2.4781 9.99908 2.42809 9.98982 2.37774 9.9907C2.32739 9.99159 2.27773 10.0026 2.23173 10.0231C2.18573 10.0436 2.14433 10.0732 2.11 10.11ZM10.61 1.61L10.11 2.11C10.0732 2.14433 10.0436 2.18573 10.0231 2.23173C10.0026 2.27773 9.99159 2.32739 9.9907 2.37774C9.98982 2.42809 9.99908 2.4781 10.0179 2.5248C10.0368 2.57149 10.0649 2.61391 10.1005 2.64952C10.1361 2.68513 10.1785 2.7132 10.2252 2.73206C10.2719 2.75092 10.3219 2.76018 10.3723 2.7593C10.4226 2.75841 10.4723 2.74739 10.5183 2.72689C10.5643 2.70639 10.6057 2.67684 10.64 2.64L11.14 2.14C11.2062 2.06891 11.2423 1.97489 11.2406 1.87774C11.2389 1.78059 11.1995 1.6879 11.1308 1.61919C11.0621 1.55048 10.9694 1.51113 10.8723 1.50941C10.7751 1.5077 10.6811 1.54376 10.61 1.61ZM10.64 10.11C10.5689 10.0438 10.4749 10.0077 10.3777 10.0094C10.2806 10.0111 10.1879 10.0505 10.1192 10.1192C10.0505 10.1879 10.0111 10.2806 10.0094 10.3777C10.0077 10.4749 10.0438 10.5689 10.11 10.64L10.61 11.14C10.6811 11.2062 10.7751 11.2423 10.8723 11.2406C10.9694 11.2389 11.0621 11.1995 11.1308 11.1308C11.1995 11.0621 11.2389 10.9694 11.2406 10.8723C11.2423 10.7751 11.2062 10.6811 11.14 10.61L10.64 10.11ZM0.875 6H0.375C0.275544 6 0.180161 6.03951 0.109835 6.10984C0.0395088 6.18016 0 6.27554 0 6.375C0 6.47446 0.0395088 6.56984 0.109835 6.64017C0.180161 6.71049 0.275544 6.75 0.375 6.75H0.875C0.974456 6.75 1.06984 6.71049 1.14017 6.64017C1.21049 6.56984 1.25 6.47446 1.25 6.375C1.25 6.27554 1.21049 6.18016 1.14017 6.10984C1.06984 6.03951 0.974456 6 0.875 6ZM6.375 11.5C6.27554 11.5 6.18016 11.5395 6.10984 11.6098C6.03951 11.6802 6 11.7755 6 11.875V12.375C6 12.4745 6.03951 12.5698 6.10984 12.6402C6.18016 12.7105 6.27554 12.75 6.375 12.75C6.47446 12.75 6.56984 12.7105 6.64017 12.6402C6.71049 12.5698 6.75 12.4745 6.75 12.375V11.875C6.75 11.7755 6.71049 11.6802 6.64017 11.6098C6.56984 11.5395 6.47446 11.5 6.375 11.5ZM12.375 6H11.875C11.7755 6 11.6802 6.03951 11.6098 6.10984C11.5395 6.18016 11.5 6.27554 11.5 6.375C11.5 6.47446 11.5395 6.56984 11.6098 6.64017C11.6802 6.71049 11.7755 6.75 11.875 6.75H12.375C12.4745 6.75 12.5698 6.71049 12.6402 6.64017C12.7105 6.56984 12.75 6.47446 12.75 6.375C12.75 6.27554 12.7105 6.18016 12.6402 6.10984C12.5698 6.03951 12.4745 6 12.375 6Z" fill="black"/>
</svg>
